<?xml version="1"?>
<svg xmlns="http://www.w3.org/2000/svg" version="1" baseProfile="tiny" width="800" height="787" viewBox="0 0 800 787" stroke-linecap="round" stroke-linejoin="round">
<g id="india_states">
<path d="M 702 773 703 774 703 777 704 779 703 782 703 784 702 784 701 786 698 780 697 779 696 776 697 774 701 773 702 773 Z M 698 767 699 769 698 771 696 773 695 771 696 769 698 769 698 767 Z M 689 751 691 755 689 755 687 753 689 751 Z M 693 751 694 752 694 754 692 752 693 751 Z M 693 746 693 747 692 748 693 750 692 752 691 747 693 746 Z M 682 742 682 744 684 746 682 746 681 745 682 742 Z M 695 736 696 739 695 739 695 736 Z M 673 718 674 721 671 721 671 719 673 718 Z M 665 673 666 674 667 676 667 679 666 681 667 682 665 683 662 683 663 681 662 679 661 676 663 676 664 674 665 673 Z M 669 656 670 660 667 661 669 656 Z M 657 654 658 654 658 656 657 656 657 654 Z M 678 642 679 643 680 646 679 646 677 643 678 642 Z M 679 638 680 642 677 639 679 638 Z M 680 637 681 640 679 639 680 637 Z M 670 636 671 638 672 638 671 640 671 640 671 641 672 641 671 644 671 647 672 645 673 645 673 647 671 651 672 653 671 657 668 655 667 650 666 651 666 647 665 647 666 644 668 646 668 640 669 637 670 636 Z M 671 636 672 638 671 638 671 636 Z M 672 634 674 635 675 635 675 637 674 638 673 640 672 641 671 640 671 640 672 638 672 636 671 636 672 634 Z M 701 634 702 636 701 636 701 634 Z M 676 618 677 621 677 621 678 623 677 626 678 628 676 632 674 631 675 633 675 634 674 634 672 634 672 635 670 634 670 627 671 625 671 620 673 618 675 619 676 618 Z M 670 616 671 616 671 619 669 621 669 619 670 616 Z M 679 600 679 604 681 606 678 606 680 608 679 614 677 615 676 614 677 616 675 616 675 619 673 618 673 613 674 612 673 611 674 605 675 604 676 601 679 601 679 600 Z" fill-rule="evenodd" id="Andaman and Nicobar"/>
<path d="M 255 536 255 533 255 527 256 526 257 525 255 523 253 524 249 523 248 521 252 520 253 519 252 518 254 518 253 515 253 512 254 512 254 509 255 506 254 503 252 502 252 500 254 499 254 497 256 496 256 494 260 493 260 492 258 492 258 491 254 490 254 487 256 486 255 485 257 484 257 481 258 482 259 479 257 478 258 477 258 475 257 473 258 471 257 471 256 470 257 466 258 464 259 465 262 463 262 460 263 460 264 457 267 456 265 453 262 452 262 450 264 448 265 445 265 443 267 442 270 444 273 445 274 445 274 441 275 440 277 439 276 436 277 436 277 433 278 432 279 430 278 429 277 428 277 427 279 428 280 429 283 430 283 429 292 431 292 434 295 434 296 436 297 437 299 437 301 439 302 439 303 436 303 435 306 436 309 438 311 437 312 438 313 436 316 435 321 438 323 441 322 443 321 445 322 447 320 449 320 451 321 450 322 455 321 456 322 457 324 458 326 460 331 459 333 463 337 462 341 465 342 467 344 471 345 472 343 473 343 474 345 474 346 473 347 475 350 474 349 477 350 478 351 483 352 485 355 483 358 484 361 484 367 484 369 482 371 482 372 483 369 485 368 485 364 490 364 494 363 496 361 497 360 496 358 497 356 497 356 499 350 501 348 501 348 502 347 502 347 505 346 505 342 504 339 502 337 503 336 506 334 504 333 507 336 508 337 508 339 508 339 511 340 512 339 513 336 512 334 510 334 511 332 510 332 507 331 506 328 505 327 507 325 507 323 510 325 511 325 513 322 516 320 514 318 515 317 514 314 515 310 516 308 518 303 518 302 519 302 524 302 527 301 528 297 527 294 528 294 530 293 531 292 529 292 531 290 533 288 532 285 531 284 532 280 531 277 533 276 533 275 535 274 536 273 538 272 538 270 536 269 537 266 536 263 537 259 537 258 536 255 536 Z" id="Telangana"/>
<path d="M 387 514 388 514 386 517 385 515 386 514 387 514 Z M 386 514 385 515 386 517 386 518 384 519 377 523 375 523 370 525 366 524 362 524 359 525 357 527 356 531 355 533 355 534 351 538 351 540 349 541 346 541 345 537 343 537 339 537 333 540 331 542 329 548 327 551 326 553 326 556 325 558 325 560 327 568 329 572 328 578 327 581 327 584 327 586 330 594 330 597 331 600 327 596 327 599 326 597 325 599 327 602 331 603 332 604 331 605 329 602 328 602 328 602 328 602 328 602 327 602 327 602 327 602 327 602 326 602 326 602 326 601 326 601 326 601 325 601 323 601 324 602 322 603 321 606 319 607 317 607 316 608 318 609 315 610 315 608 313 608 312 609 311 607 309 607 306 607 308 608 308 610 306 612 304 612 303 611 300 615 296 613 293 613 290 614 288 614 288 615 286 616 286 618 284 624 282 623 281 626 279 626 276 624 274 624 275 622 275 620 277 620 278 617 280 618 280 616 281 616 281 615 283 614 283 612 284 611 285 608 284 607 283 608 279 606 279 605 279 600 274 600 274 599 273 598 271 598 271 597 272 594 272 592 270 591 268 593 267 592 268 591 268 590 267 591 266 590 264 590 264 592 263 593 260 594 256 597 254 596 254 595 253 593 250 592 248 593 248 591 246 592 246 595 241 595 241 593 242 590 240 588 241 587 239 584 242 583 242 587 245 587 245 588 250 587 251 589 251 591 253 591 253 589 250 588 252 585 252 584 255 583 255 580 252 579 252 580 253 583 252 583 251 581 249 581 249 579 247 580 246 579 245 580 245 582 240 582 240 580 239 579 238 577 240 577 241 575 238 575 236 574 235 572 236 568 236 567 237 567 238 562 235 562 236 558 238 560 241 561 244 560 246 556 244 552 243 551 242 549 241 547 242 547 242 544 245 543 243 541 243 538 242 538 244 536 248 535 253 535 255 536 258 536 259 537 263 537 266 536 269 537 270 536 272 538 273 538 274 536 275 535 276 533 277 533 280 531 284 532 285 531 288 532 290 533 292 531 292 529 293 531 294 530 294 528 297 527 301 528 302 527 302 524 302 519 303 518 308 518 310 516 314 515 317 514 318 515 320 514 322 516 325 513 325 511 323 510 325 507 327 507 328 505 331 506 332 507 332 510 334 511 334 510 336 512 339 513 340 512 339 511 339 508 337 508 336 508 333 507 334 504 336 506 337 503 339 502 342 504 346 505 347 505 347 502 348 502 348 501 350 501 356 499 356 497 358 497 360 496 361 497 363 496 364 494 364 490 368 485 369 485 372 483 371 482 373 481 376 479 379 477 383 478 383 479 385 479 386 477 387 478 387 475 387 474 387 471 389 469 388 468 391 464 392 465 393 468 394 469 394 472 395 473 396 471 399 470 400 467 403 469 405 469 407 468 406 467 408 464 406 464 406 461 407 461 409 458 411 459 413 457 415 457 417 455 415 454 414 452 417 452 418 453 418 450 419 450 420 451 422 448 425 452 427 451 428 456 430 457 433 457 435 459 439 457 441 458 444 454 445 452 444 452 444 452 444 452 444 451 444 451 444 451 445 452 446 452 446 452 446 451 446 451 446 451 447 451 448 450 448 450 448 450 448 450 448 450 448 451 449 451 449 451 449 450 449 450 450 450 450 450 450 450 450 450 450 450 451 450 451 450 450 449 450 450 450 450 450 449 449 449 449 448 450 448 450 448 451 448 451 448 451 447 451 448 452 447 452 447 452 448 452 448 452 449 452 449 452 449 453 449 453 450 451 452 449 455 448 457 446 459 442 464 439 467 435 471 424 477 421 479 420 480 418 482 417 484 412 489 410 491 406 492 405 493 399 496 394 499 390 501 386 505 385 509 387 510 388 510 387 513 386 514 Z" fill-rule="evenodd" id="Andhra Pradesh"/>
<path d="M 740 242 739 240 740 239 738 237 739 235 738 232 740 232 743 230 746 229 746 227 748 226 749 227 757 225 757 226 761 223 759 221 756 221 757 218 755 217 755 214 754 213 756 211 758 209 760 207 756 206 750 207 747 209 744 210 742 209 729 213 729 214 726 215 719 217 718 217 716 217 714 217 713 216 712 217 713 219 710 220 707 223 706 224 700 229 701 231 698 233 697 234 691 235 688 234 679 235 675 233 669 232 669 233 667 234 663 234 656 236 654 236 654 233 652 232 652 228 654 225 653 224 652 220 649 221 647 220 645 220 643 219 642 220 639 217 639 216 641 214 641 211 639 210 642 210 643 211 646 211 647 213 649 214 651 212 653 212 655 210 658 210 660 212 665 210 666 211 668 209 669 209 671 206 669 204 670 203 673 201 676 200 677 199 678 200 679 198 682 197 684 197 685 195 683 194 686 192 687 189 688 188 693 188 695 188 698 187 700 188 701 187 704 188 706 185 706 183 710 180 712 176 714 174 715 174 718 172 721 172 723 169 727 172 728 174 730 173 734 175 733 174 736 175 740 176 740 177 745 178 747 175 748 175 748 173 749 173 753 170 754 169 756 169 757 168 759 168 763 166 764 168 767 172 768 172 771 171 771 172 770 174 767 174 765 176 763 176 765 179 765 181 767 180 770 178 772 178 775 176 773 179 775 179 775 182 777 184 776 186 773 187 774 188 771 190 769 191 770 193 768 194 770 195 772 196 773 194 774 194 777 193 778 193 781 194 782 196 785 195 788 197 789 196 791 196 792 198 794 198 798 200 797 202 796 204 798 204 799 205 798 206 798 209 795 208 790 212 790 213 788 213 787 215 785 216 786 219 785 220 787 222 788 224 790 226 792 229 792 230 789 230 787 229 784 228 785 226 782 223 780 223 777 223 775 225 772 225 767 225 761 228 759 231 757 233 755 233 754 234 754 236 751 236 750 238 748 238 745 241 741 243 740 242 Z" id="Arunachal Pradesh"/>
<path d="M 593 273 593 273 593 274 593 274 593 275 593 275 593 273 Z M 738 232 735 234 733 235 731 234 730 235 728 238 724 240 720 241 717 244 717 246 714 248 713 245 711 248 710 251 709 252 706 255 705 261 705 262 703 265 702 264 700 266 700 263 700 261 697 263 698 264 693 268 692 270 691 270 687 273 689 275 691 276 691 279 689 281 688 283 688 284 685 287 685 290 684 293 682 293 681 296 681 299 680 299 679 301 680 304 678 304 674 304 672 301 670 306 668 306 668 308 666 308 665 310 665 310 665 311 665 311 665 310 665 311 664 311 664 311 664 311 664 311 664 311 664 311 664 311 663 311 663 311 663 311 663 310 663 308 660 308 659 308 657 308 659 304 657 301 658 296 659 295 658 290 659 290 662 292 665 291 664 289 663 289 663 287 664 287 665 284 668 285 669 283 673 282 673 280 669 276 668 276 667 274 669 273 669 272 667 273 666 271 665 271 663 268 662 267 660 268 657 268 656 270 655 266 657 263 655 263 656 261 659 258 656 259 649 260 648 260 648 258 646 257 644 259 643 262 642 263 641 262 641 260 639 260 638 262 637 264 633 265 631 267 630 268 629 267 629 265 624 265 625 264 623 264 623 262 619 262 618 263 617 262 614 263 613 262 611 263 611 262 610 260 608 261 606 260 605 261 599 262 599 262 599 262 599 263 599 263 598 263 598 263 598 263 598 263 597 263 597 263 597 264 597 264 597 264 597 265 596 265 597 265 596 265 595 265 595 265 595 265 595 266 595 266 594 268 594 267 594 268 594 269 595 269 595 269 596 270 596 271 597 271 597 272 596 272 594 272 593 273 593 273 593 271 591 265 593 262 592 261 591 258 589 256 589 256 589 256 589 256 588 256 588 256 588 255 589 255 589 255 589 255 589 255 589 255 589 255 588 255 588 254 588 255 589 254 589 254 589 254 589 254 589 253 589 253 588 253 589 253 589 253 589 253 589 253 589 253 589 252 589 252 589 252 590 252 590 253 590 252 590 252 592 250 593 248 592 247 593 244 593 241 593 241 598 241 602 239 603 237 605 237 608 236 612 239 614 239 625 239 626 238 631 238 633 239 635 238 637 239 641 238 644 238 646 237 647 236 648 235 651 237 653 237 654 236 656 236 663 234 667 234 669 233 669 232 675 233 679 235 688 234 691 235 697 234 698 233 701 231 700 229 706 224 707 223 710 220 713 219 712 217 713 216 714 217 716 217 718 217 719 217 726 215 729 214 729 213 742 209 744 210 747 209 750 207 756 206 760 207 758 209 756 211 754 213 755 214 755 217 757 218 756 221 759 221 761 223 757 226 757 225 749 227 748 226 746 227 746 229 743 230 740 232 738 232 Z" fill-rule="evenodd" id="Assam"/>
<path d="M 545 246 546 246 548 245 547 247 549 248 549 249 548 250 548 250 549 250 549 250 549 250 550 251 550 251 550 251 550 251 549 251 549 251 549 251 548 252 548 253 548 253 547 253 547 253 546 253 546 253 546 254 545 254 545 254 545 254 545 255 545 255 544 255 544 255 544 255 544 255 544 256 544 256 543 256 543 256 542 256 542 257 542 257 542 257 541 256 541 256 541 257 541 257 541 257 541 257 541 258 541 258 541 258 541 258 541 258 540 259 540 258 540 258 539 258 539 258 539 258 539 259 538 260 537 260 537 261 537 261 537 261 537 262 537 262 537 262 537 262 537 262 537 264 539 264 539 267 543 269 543 269 543 270 543 270 543 270 543 270 543 270 543 270 543 271 543 271 543 271 543 271 543 271 543 272 543 272 543 272 543 272 543 272 543 273 543 273 543 273 543 273 544 274 544 274 544 274 544 274 544 275 541 273 538 274 538 275 536 276 536 279 538 280 536 282 534 281 533 279 531 279 530 278 529 280 528 280 527 282 525 282 523 282 523 285 522 285 519 286 519 288 519 292 518 292 516 298 513 298 511 300 509 299 506 300 504 299 502 300 500 305 499 305 497 303 495 302 496 299 494 299 493 298 492 299 491 298 490 295 489 294 486 295 484 293 481 293 480 293 479 295 478 296 478 299 476 299 475 301 473 300 468 301 468 301 464 302 465 303 462 305 462 304 459 305 457 305 457 302 455 301 451 303 451 304 449 304 447 305 446 307 441 303 441 302 441 300 439 301 438 300 438 301 436 301 436 302 434 298 432 298 431 300 425 301 419 301 420 298 419 297 416 294 415 290 415 287 414 287 415 285 415 282 417 281 423 278 424 277 427 277 430 272 435 270 435 269 437 268 439 270 441 269 442 267 443 267 446 269 448 269 448 268 450 268 450 266 447 264 444 263 442 262 441 262 437 260 435 258 434 258 433 256 433 254 435 254 437 254 437 250 434 250 433 248 430 248 430 246 432 247 434 246 435 243 437 243 440 244 444 243 443 242 442 242 442 242 441 242 441 241 441 240 441 240 440 240 440 240 440 240 439 240 439 240 439 239 439 239 440 238 439 238 439 238 440 238 439 237 439 237 439 237 438 237 437 237 437 237 437 238 437 238 436 237 437 236 436 236 435 236 435 236 435 236 435 236 434 236 434 236 434 236 434 236 434 236 434 235 434 235 433 235 433 235 434 235 434 235 434 234 434 234 434 234 434 234 434 234 434 233 434 233 434 232 433 232 432 231 433 231 433 231 433 230 433 230 432 231 431 231 431 231 431 230 431 230 431 230 431 230 431 229 432 229 432 228 432 228 432 228 432 227 432 227 431 227 430 226 430 226 430 226 430 224 429 224 430 222 429 221 431 221 434 221 435 219 440 221 441 223 450 224 452 227 451 231 450 232 454 233 459 234 459 235 462 236 461 237 465 237 465 239 469 240 471 239 472 239 477 237 480 239 480 242 480 243 483 244 483 245 486 244 486 243 488 242 493 244 497 244 502 246 503 247 508 249 508 248 510 248 515 246 517 244 517 248 519 249 522 249 524 251 525 249 527 248 531 250 532 250 533 249 536 249 536 248 538 249 539 247 540 249 542 250 545 248 545 246 Z" id="Bihar"/>
<path d="M 236 133 236 133 236 133 234 132 234 132 234 132 234 132 234 132 234 132 234 131 233 131 233 130 234 130 234 130 234 130 234 130 234 130 235 130 235 129 235 130 235 130 235 130 236 130 236 130 236 130 236 130 236 130 237 130 237 131 237 132 236 133 Z" id="Chandigarh"/>
<path d="M 433 355 434 357 432 360 429 360 426 363 423 364 421 367 422 368 420 368 420 371 422 372 420 375 419 375 419 377 417 379 417 379 416 380 415 384 416 386 416 388 413 387 413 390 411 390 411 393 409 394 406 394 404 392 400 393 399 393 395 393 395 396 393 399 391 400 391 401 389 402 388 400 387 405 388 407 387 409 388 410 390 413 389 415 390 417 388 420 389 423 397 425 397 429 396 429 394 430 394 428 390 427 387 429 385 425 383 425 380 423 379 424 377 422 374 424 374 426 374 427 377 428 378 430 379 430 379 432 379 437 379 438 381 438 381 440 383 440 382 442 383 443 382 444 384 448 385 454 383 454 382 457 377 460 377 462 375 462 377 463 375 464 372 468 371 469 369 470 365 472 365 475 364 478 364 480 363 482 362 482 361 484 358 484 355 483 352 485 351 483 350 478 349 477 350 474 347 475 346 473 345 474 343 474 343 473 345 472 344 471 342 467 341 465 337 462 333 463 331 459 330 458 333 457 333 456 331 453 331 452 334 447 334 445 336 444 336 443 339 441 340 443 342 443 342 444 344 444 346 442 345 440 348 439 347 437 343 435 342 435 342 433 338 430 338 429 336 429 336 431 335 429 337 428 334 427 336 426 338 426 338 421 337 420 334 420 335 419 334 418 337 417 340 415 339 414 340 408 338 408 337 407 339 406 338 403 338 399 336 399 335 397 336 392 339 391 342 389 341 388 343 384 343 379 344 376 346 377 346 372 347 368 349 366 350 368 351 366 351 363 353 363 354 362 354 358 355 356 357 357 360 355 361 356 362 358 363 356 366 355 367 355 368 353 370 351 372 349 372 346 374 345 376 344 376 341 376 340 381 340 382 338 382 336 383 333 381 333 381 331 377 331 376 328 373 328 371 327 368 329 366 326 367 326 370 323 368 321 367 318 369 317 370 319 373 320 376 319 378 319 379 320 383 320 384 320 391 320 393 321 396 319 396 318 398 317 400 316 404 319 409 318 411 317 411 315 413 314 414 312 417 313 419 314 419 316 421 319 423 319 425 322 425 324 427 326 431 327 431 325 433 325 433 329 432 330 432 332 434 332 435 333 434 337 433 338 436 340 437 343 438 342 439 343 443 343 443 346 442 346 440 349 439 350 439 351 437 352 435 352 433 354 433 355 Z" id="Chhattisgarh"/>
<path d="M 132 416 133 416 133 416 133 416 134 415 134 415 134 415 135 415 135 415 135 414 135 414 135 415 135 415 136 415 136 415 135 416 136 416 136 416 137 416 137 416 137 416 137 416 137 417 137 416 137 416 137 416 136 417 136 417 136 417 136 417 136 417 135 418 135 418 135 418 135 418 134 418 134 419 134 419 134 420 135 420 135 420 135 420 135 420 135 420 135 420 136 420 136 419 136 419 136 419 136 419 136 419 136 419 137 419 137 419 138 419 138 419 139 419 138 419 138 420 138 420 138 420 138 421 138 421 138 422 137 423 137 423 137 423 137 422 136 422 136 422 136 422 136 422 135 422 135 422 135 422 135 422 134 422 134 422 134 422 133 421 133 421 132 421 132 421 132 421 132 421 132 421 131 418 132 418 131 418 131 418 130 417 130 417 131 416 131 416 131 417 132 417 132 417 132 416 Z" id="Dadra and Nagar Haveli"/>
<path d="M 129 412 128 412 128 412 128 413 128 413 128 413 129 413 129 413 129 414 129 414 129 414 128 413 127 414 128 412 128 412 129 412 Z M 76 404 77 404 75 405 75 404 76 404 76 404 Z M 71 398 71 398 72 398 72 398 72 398 73 398 73 398 74 398 74 398 74 398 75 399 75 400 73 401 74 401 74 404 74 404 74 405 73 405 73 405 71 405 69 403 69 403 69 403 69 402 69 402 69 400 70 399 70 398 70 397 71 397 71 398 71 398 Z" fill-rule="evenodd" id="Daman and Diu"/>
<path d="M 247 184 247 184 247 184 247 184 248 184 248 185 248 185 248 185 248 185 248 186 249 186 249 186 249 186 250 186 250 186 250 186 250 186 250 187 250 189 250 189 250 190 250 190 250 191 250 191 251 192 251 192 250 192 250 192 250 192 249 192 248 193 248 193 248 193 248 194 248 194 247 194 247 195 246 195 246 194 245 194 245 194 244 193 244 192 244 192 243 192 242 191 242 191 242 191 242 192 241 192 240 192 239 192 239 192 238 192 238 192 238 191 237 190 237 190 238 190 238 188 239 189 239 188 239 188 240 187 240 187 240 187 240 186 240 185 240 185 240 185 240 184 240 183 241 183 241 183 243 183 243 182 244 182 244 182 244 182 245 182 245 183 246 183 246 182 247 182 247 182 247 184 Z" id="Delhi"/>
<path d="M 163 543 167 543 167 547 168 550 169 551 169 553 167 554 168 556 167 557 167 560 168 560 167 560 167 561 167 561 167 562 167 562 167 562 166 562 166 562 166 563 165 563 165 563 165 562 164 562 164 562 164 563 164 563 164 563 164 563 163 563 162 563 161 563 161 562 159 559 157 558 158 557 157 552 154 550 156 550 156 549 153 547 151 541 151 541 152 541 152 541 155 541 156 539 156 540 158 541 159 544 160 544 163 543 Z" id="Goa"/>
<path d="M 11 334 13 335 11 335 11 334 Z M 6 320 7 321 7 321 7 324 5 326 1 326 1 325 3 325 5 322 6 320 Z M 4 320 5 322 3 323 3 321 4 320 Z M 9 320 10 322 8 322 8 320 9 320 Z M 7 318 8 319 6 321 6 320 5 321 7 318 Z M 8 317 8 318 6 318 5 319 5 318 6 318 8 317 Z M 10 317 12 317 10 319 9 318 10 317 10 317 Z M 9 315 10 317 9 318 9 319 9 315 Z M 7 315 8 316 7 317 5 318 5 320 4 320 3 321 2 324 1 322 2 320 4 317 5 317 6 315 7 315 Z M 168 341 170 345 172 345 172 347 171 350 170 352 167 352 165 354 163 356 161 355 162 358 163 357 167 358 167 359 165 360 165 361 162 360 162 364 163 364 163 367 165 367 162 369 164 371 161 372 156 374 154 374 155 376 157 378 156 379 154 380 155 381 156 383 161 382 165 382 165 382 168 381 168 384 166 384 162 384 161 386 158 386 158 389 157 390 155 390 155 392 151 393 149 394 152 394 153 396 155 397 157 397 157 399 158 401 157 405 155 406 155 407 153 409 150 408 149 407 147 406 146 406 145 405 143 406 145 408 145 411 144 414 144 417 144 419 140 419 140 420 138 421 138 421 138 420 138 420 138 420 138 419 139 419 138 419 138 419 137 419 137 419 136 419 136 419 136 419 136 419 136 419 136 419 136 420 135 420 135 420 135 420 135 420 135 420 135 420 134 420 134 419 134 419 134 418 135 418 135 418 135 418 135 418 136 417 136 417 136 417 136 417 136 417 137 416 137 416 137 416 137 417 137 416 137 416 137 416 137 416 136 416 136 416 135 416 136 415 136 415 135 415 135 415 135 414 135 414 135 415 135 415 134 415 134 415 134 415 133 416 133 416 133 416 132 416 132 417 132 417 131 417 131 416 131 416 130 417 130 417 131 418 131 418 132 418 131 418 129 418 127 421 125 421 125 418 126 415 127 414 128 413 129 414 129 414 129 414 129 413 129 413 128 413 128 413 128 413 128 412 128 412 129 412 129 408 127 400 124 395 125 393 123 393 122 394 122 391 121 388 124 382 122 383 121 382 122 380 124 379 126 379 125 378 121 378 120 379 119 378 121 374 119 374 119 371 120 365 122 364 126 365 127 363 129 364 128 362 126 363 124 363 122 362 120 363 118 364 117 361 116 363 115 364 114 366 112 372 112 368 113 368 113 367 111 368 111 371 112 373 112 377 113 380 112 381 111 384 109 388 107 391 108 391 104 394 102 394 95 398 92 399 90 401 86 401 82 404 77 404 76 404 76 404 75 404 75 405 75 405 74 405 74 404 74 404 74 401 73 401 75 400 75 399 74 398 74 398 74 398 73 398 73 398 72 398 72 398 72 398 71 398 71 398 71 398 71 397 70 397 70 398 70 399 69 400 69 402 69 402 69 403 69 403 69 403 67 403 62 401 57 397 52 393 42 382 44 381 43 379 41 380 43 381 42 382 39 380 31 373 23 364 21 361 23 358 24 358 25 359 29 359 27 361 29 363 32 361 36 360 37 358 40 360 43 357 45 359 46 357 48 357 49 355 51 354 55 354 57 352 57 350 59 349 61 345 62 345 64 340 61 342 61 343 60 344 57 343 53 345 49 345 44 347 43 349 39 349 38 348 35 348 32 347 28 347 22 343 14 338 12 337 13 336 13 333 11 332 9 328 9 325 11 323 14 320 16 320 14 319 12 319 10 322 10 320 13 318 11 316 16 316 17 307 18 307 19 309 20 310 22 308 23 309 25 308 28 309 32 308 37 308 39 307 43 310 51 310 53 307 60 305 66 304 67 304 66 306 67 308 72 309 75 308 75 307 78 305 79 306 81 304 78 303 78 299 81 296 82 297 83 298 84 298 85 298 86 298 87 297 88 298 91 297 94 297 96 298 100 297 101 299 101 297 103 298 106 296 107 297 110 298 111 298 114 298 112 299 113 300 115 300 116 301 117 302 118 304 120 301 121 302 124 302 125 305 129 305 130 306 132 305 132 303 135 302 135 304 137 305 135 310 136 312 138 312 138 314 139 315 141 313 141 312 144 314 144 317 142 319 143 321 143 321 146 323 147 326 148 325 150 325 150 330 152 330 152 331 153 330 155 330 157 333 159 332 161 334 163 335 163 337 165 338 166 337 168 341 Z" fill-rule="evenodd" id="Gujarat"/>
<path d="M 257 141 257 143 254 146 253 147 253 148 249 150 246 154 246 157 245 158 245 159 244 162 244 164 245 165 245 168 246 170 245 171 245 176 247 178 247 180 248 181 247 182 247 182 246 182 246 183 245 183 245 182 244 182 244 182 244 182 243 182 243 183 241 183 241 183 240 183 240 184 240 185 240 185 240 185 240 186 240 187 240 187 240 187 239 188 239 188 239 189 238 188 238 190 237 190 237 190 238 191 238 192 238 192 239 192 239 192 240 192 241 192 242 192 242 191 242 191 242 191 243 192 244 192 244 192 244 193 245 194 245 194 246 194 246 195 247 195 247 194 248 194 248 194 248 193 248 193 248 193 249 192 250 192 250 192 250 192 251 192 253 194 255 196 254 198 256 199 256 201 255 201 255 205 256 206 256 208 254 209 251 210 249 211 247 211 245 212 243 211 243 213 241 213 241 215 238 213 240 210 239 206 240 202 238 200 236 200 236 202 232 203 232 205 229 207 229 205 226 203 228 203 227 202 224 202 223 203 223 205 221 204 219 204 218 206 220 210 219 211 217 209 216 210 213 210 212 208 214 206 214 205 215 203 212 203 215 201 217 202 215 199 212 196 208 194 208 193 204 191 204 189 202 189 201 183 200 180 201 178 199 178 197 177 198 171 195 172 196 171 193 172 192 171 190 172 188 171 186 171 185 169 183 168 181 169 177 168 176 170 175 167 176 164 175 163 176 158 172 158 172 157 175 155 174 153 177 154 179 152 181 151 185 153 187 155 190 154 189 155 191 157 192 156 193 158 192 159 192 161 193 162 193 164 195 163 196 160 199 156 202 158 204 157 206 158 206 156 209 156 210 158 212 159 215 158 216 157 217 157 221 155 219 154 219 151 221 148 225 148 226 146 227 148 228 149 231 148 232 146 229 144 231 144 234 141 233 140 235 139 237 139 238 141 240 140 238 139 239 137 239 135 237 132 237 132 237 131 237 130 237 128 235 126 236 126 237 127 239 127 240 128 242 131 244 131 246 132 246 135 245 136 247 137 247 138 251 139 253 140 255 139 257 141 Z" id="Haryana"/>
<path d="M 280 83 281 84 283 85 281 87 281 90 284 90 285 91 284 92 289 96 290 97 288 102 289 105 290 105 291 107 291 108 289 109 288 111 291 112 290 113 291 113 291 115 294 117 296 121 293 121 291 120 291 118 287 118 285 117 282 118 279 116 277 116 275 117 273 118 269 120 268 119 266 120 263 122 264 124 262 125 263 126 263 128 262 128 260 131 262 132 263 134 262 135 264 136 263 137 257 140 257 141 255 139 253 140 251 139 247 138 247 137 245 136 246 135 246 132 244 131 242 131 240 128 239 127 237 127 236 126 235 126 234 125 231 124 231 121 230 118 226 116 224 113 223 113 222 115 219 116 218 113 218 113 216 109 214 106 212 102 213 102 211 98 209 97 205 94 203 94 205 93 204 90 207 89 210 86 212 85 210 83 211 81 212 79 212 76 208 72 211 71 212 72 215 72 217 69 221 68 222 66 225 64 227 64 230 64 231 65 234 64 235 62 237 63 236 65 238 66 239 68 241 70 245 70 246 72 248 72 251 74 252 73 254 73 258 71 261 70 263 72 262 73 266 76 266 78 268 80 270 80 271 79 274 78 279 76 279 78 279 80 277 81 276 83 277 84 279 82 280 83 Z" id="Himachal Pradesh"/>
<path d="M 280 83 279 82 277 84 276 83 277 81 279 80 279 78 279 76 274 78 271 79 270 80 268 80 266 78 266 76 262 73 263 72 261 70 258 71 254 73 252 73 251 74 248 72 246 72 245 70 241 70 239 68 238 66 236 65 237 63 235 62 234 64 231 65 230 64 227 64 225 64 222 66 221 68 217 69 215 72 212 72 211 71 208 72 212 76 212 79 211 81 209 83 207 84 206 85 201 87 200 89 200 87 196 87 192 85 191 85 189 83 188 83 187 84 183 83 179 83 177 80 178 78 177 77 179 74 177 74 176 76 174 76 172 75 171 72 168 71 169 69 165 68 164 66 162 64 160 64 160 62 162 62 165 59 164 56 162 54 160 54 159 49 161 47 164 46 167 44 166 42 163 41 162 41 157 41 157 39 159 36 159 35 157 32 155 33 153 32 154 31 157 28 157 27 158 26 158 24 158 23 164 23 168 20 170 20 175 21 178 23 184 23 187 24 191 24 194 25 194 25 198 27 203 27 207 28 212 25 215 24 219 24 223 22 225 22 227 20 230 21 233 21 235 19 234 17 238 15 240 16 242 16 242 14 243 14 246 13 259 5 265 1 266 3 269 1 272 2 269 4 269 7 270 10 272 11 271 12 274 18 274 21 277 24 279 24 280 25 284 25 287 28 289 28 292 31 294 32 296 33 295 36 293 38 289 39 288 41 290 42 288 43 288 45 290 47 290 49 288 51 289 52 291 56 298 61 298 63 300 64 307 64 307 66 306 68 306 70 309 73 309 74 311 76 312 78 311 80 309 80 304 83 302 83 299 84 299 86 298 86 295 87 290 84 290 78 287 79 286 80 283 80 280 81 280 83 Z" id="Jammu and Kashmir"/>
<path d="M 536 282 536 285 538 287 541 290 541 291 539 292 538 294 539 295 539 299 536 300 537 304 535 307 532 308 532 309 533 311 530 311 531 311 529 313 528 312 528 314 527 316 524 314 521 314 523 316 523 318 521 318 521 319 518 319 519 321 512 318 510 320 509 324 507 323 502 325 499 325 497 328 497 330 493 330 491 329 491 327 488 326 488 327 489 329 486 330 484 329 484 334 483 335 483 337 485 339 488 338 488 339 491 340 493 343 501 343 502 343 499 345 500 345 499 348 501 351 502 350 505 352 505 354 508 354 509 357 508 358 510 359 510 361 511 362 511 363 509 362 509 364 507 364 505 363 502 362 500 360 499 361 497 360 495 358 493 357 490 356 488 354 486 357 488 358 487 360 488 361 486 363 488 365 486 369 484 370 481 370 481 369 482 367 479 368 478 367 476 368 471 365 470 365 467 367 466 370 465 368 461 367 462 361 461 357 457 358 453 358 453 358 450 358 446 358 444 360 441 360 438 360 436 358 436 357 433 355 433 354 435 352 437 352 439 351 439 350 440 349 442 346 443 346 443 343 439 343 438 342 437 343 436 340 433 338 434 337 435 333 434 332 432 332 432 330 433 329 433 325 431 325 431 327 427 326 425 324 425 322 423 319 421 319 419 316 419 314 417 313 414 312 416 308 416 306 417 305 416 303 416 301 419 301 425 301 431 300 432 298 434 298 436 302 436 301 438 301 438 300 439 301 441 300 441 302 441 303 446 307 447 305 449 304 451 304 451 303 455 301 457 302 457 305 459 305 462 304 462 305 465 303 464 302 468 301 468 301 473 300 475 301 476 299 478 299 478 296 479 295 480 293 481 293 484 293 486 295 489 294 490 295 491 298 492 299 493 298 494 299 496 299 495 302 497 303 499 305 500 305 502 300 504 299 506 300 509 299 511 300 513 298 516 298 518 292 519 292 519 288 519 286 522 285 523 285 523 282 525 282 527 282 528 280 529 280 530 278 531 279 533 279 534 281 536 282 Z" id="Jharkhand"/>
<path d="M 257 471 258 471 257 473 258 475 258 477 257 478 259 479 258 482 257 481 257 484 255 485 256 486 254 487 254 490 258 491 258 492 260 492 260 493 256 494 256 496 254 497 254 499 252 500 252 502 254 503 255 506 254 509 254 512 253 512 253 515 254 518 252 518 253 519 252 520 248 521 249 523 253 524 255 523 257 525 256 526 255 527 255 533 255 536 253 535 248 535 244 536 242 538 243 538 243 541 245 543 242 544 242 547 241 547 242 549 243 551 244 552 246 556 244 560 241 561 238 560 236 558 235 562 238 562 237 567 236 567 236 568 235 572 236 574 238 575 241 575 240 577 238 577 239 579 240 580 240 582 245 582 245 580 246 579 247 580 249 579 249 581 251 581 252 583 253 583 252 580 252 579 255 580 255 583 252 584 252 585 250 588 253 589 253 591 251 591 251 589 250 587 245 588 245 587 242 587 242 583 239 584 241 587 240 588 242 590 241 593 241 595 246 595 246 592 248 591 248 593 250 592 253 593 254 595 254 596 256 597 260 594 263 593 264 592 264 590 266 590 267 591 268 590 268 591 267 592 268 593 270 591 272 592 272 594 271 597 271 598 273 598 274 599 274 600 279 600 279 605 279 606 283 608 284 607 285 608 284 611 283 612 283 614 281 615 281 616 280 616 280 618 278 617 277 620 275 620 275 622 272 622 269 620 269 621 267 619 264 619 261 625 258 625 257 628 257 630 259 630 258 633 256 635 254 636 254 637 255 638 258 637 261 638 262 640 260 644 257 645 255 645 253 650 250 649 249 648 244 649 241 648 240 649 239 649 237 652 237 654 231 654 229 653 228 651 226 652 225 649 223 650 222 648 220 648 219 646 217 647 217 644 214 645 211 644 209 643 209 641 206 641 206 641 206 640 206 640 206 640 205 640 205 640 204 639 204 639 204 639 204 639 204 639 203 639 203 639 203 639 202 638 202 638 202 638 202 638 201 637 202 637 201 637 201 636 201 636 201 636 201 636 201 636 201 636 200 636 200 635 200 635 199 635 199 635 198 635 199 635 198 634 198 634 198 633 198 633 198 633 198 633 198 632 198 632 197 631 197 630 198 631 198 631 198 630 198 630 198 629 198 629 198 629 197 629 197 629 197 629 197 630 196 630 196 630 196 630 196 629 194 628 196 627 194 626 193 627 191 625 186 623 187 621 183 622 182 620 180 611 179 605 178 599 176 592 175 590 174 589 172 583 171 580 169 574 168 574 167 571 167 570 166 568 165 568 162 566 163 565 162 563 163 563 164 563 164 563 164 563 164 563 164 562 164 562 165 562 165 563 165 563 166 563 166 562 166 562 167 562 167 562 167 562 167 561 167 561 167 560 168 560 167 560 167 557 168 556 167 554 169 553 169 551 168 550 167 547 167 543 163 543 163 541 166 540 166 541 169 540 170 536 171 535 172 532 170 533 170 531 171 530 173 531 173 527 169 526 169 521 166 520 173 516 175 516 175 518 178 517 178 516 179 514 183 512 185 512 184 510 186 509 185 508 189 508 191 510 193 511 195 510 195 507 200 507 200 508 204 507 205 507 205 504 204 501 205 499 203 498 203 496 204 496 204 493 206 495 207 495 209 496 209 495 211 495 212 497 218 496 219 497 220 496 222 497 224 497 225 498 225 496 224 496 224 494 223 494 224 492 223 490 226 490 228 488 227 487 229 485 230 487 231 486 233 488 234 486 234 485 236 484 234 482 236 482 239 481 239 478 241 476 239 476 240 474 244 475 244 474 246 473 246 471 247 471 248 468 252 467 252 468 251 470 253 471 254 472 257 471 Z" id="Karnataka"/>
<path d="M 196 629 196 630 196 630 196 630 197 630 197 629 197 629 197 629 198 629 198 629 198 629 198 630 198 630 198 631 198 631 197 630 197 631 198 632 198 632 198 633 198 633 198 633 198 633 198 634 198 634 199 635 198 635 199 635 199 635 200 635 200 635 200 636 201 636 201 636 201 636 201 636 201 636 201 636 201 637 202 637 201 637 202 638 202 638 202 638 202 638 203 639 203 639 203 639 204 639 204 639 204 639 204 639 204 639 205 640 205 640 206 640 206 640 206 640 206 641 206 641 209 641 209 643 211 644 214 645 217 644 217 647 219 646 220 648 222 648 223 650 225 649 226 652 226 653 222 655 220 655 221 658 223 658 226 660 229 660 228 663 226 665 231 665 233 664 234 664 233 666 234 667 234 669 236 669 233 670 232 672 237 674 239 676 238 679 238 680 236 680 237 681 236 686 237 688 237 689 239 691 241 692 242 690 246 688 247 689 249 692 249 694 247 695 249 698 247 701 247 705 246 708 249 709 250 709 252 711 250 714 250 716 249 717 248 721 245 724 247 727 248 728 247 731 246 732 249 737 247 739 247 740 246 742 246 743 244 744 241 741 240 741 233 732 232 729 229 728 228 724 224 714 222 709 222 702 221 698 222 700 224 702 224 703 224 704 224 706 225 706 224 710 228 710 226 709 226 708 225 705 225 704 224 703 225 702 224 700 223 700 221 697 221 695 220 694 221 698 220 698 217 688 212 676 210 667 209 666 207 661 206 658 204 657 201 651 197 647 197 647 195 644 194 643 195 641 195 641 195 641 195 641 195 640 195 640 196 640 196 640 196 640 196 640 197 639 197 639 197 639 198 639 198 639 198 639 198 639 197 639 197 639 197 639 196 639 196 639 196 639 195 639 195 639 195 640 194 640 194 640 194 640 194 640 193 640 193 640 193 641 193 642 193 642 192 643 192 640 190 637 188 632 186 629 183 622 187 621 186 623 191 625 193 627 194 626 196 627 194 628 196 629 Z" id="Kerala"/>
<path d="M 134 743 134 744 133 744 134 744 134 743 Z" id="Lakshadweep"/>
<path d="M 400 316 398 317 396 318 396 319 393 321 391 320 384 320 383 320 379 320 378 319 376 319 373 320 370 319 369 317 367 318 368 321 370 323 367 326 366 326 368 329 371 327 373 328 376 328 377 331 381 331 381 333 383 333 382 336 382 338 381 340 376 340 376 341 376 344 374 345 372 346 372 349 370 351 368 353 367 355 366 355 363 356 362 358 361 356 360 355 357 357 355 356 354 358 354 362 353 363 351 363 351 366 350 368 349 366 347 368 346 372 346 377 344 376 343 379 343 384 341 388 340 388 338 386 336 386 334 387 335 385 334 383 331 380 329 380 327 380 325 382 323 382 321 382 320 382 316 381 314 382 311 382 309 379 307 379 303 377 302 379 300 379 299 380 295 380 294 381 294 384 289 384 289 384 285 384 283 383 281 383 280 381 279 381 274 382 273 383 271 385 266 387 263 386 261 387 260 386 258 386 258 387 255 387 253 382 255 382 257 383 257 379 255 376 249 376 249 377 247 378 246 377 244 377 241 378 239 381 236 381 235 383 236 384 234 386 231 388 232 389 231 392 228 392 227 394 224 395 219 395 217 392 219 392 219 390 217 387 216 387 213 386 210 387 204 386 202 387 199 386 195 386 193 386 190 384 188 382 183 380 182 380 179 380 175 378 174 377 173 375 174 372 172 371 171 369 170 369 168 371 165 372 164 371 162 369 165 367 163 367 163 364 162 364 162 360 165 361 165 360 167 359 167 358 163 357 162 358 161 355 163 356 165 354 167 352 170 352 171 350 172 347 172 345 170 345 168 341 170 339 172 340 174 340 179 336 179 335 177 335 174 334 175 331 181 328 183 327 184 325 185 322 184 320 185 317 187 314 186 312 184 309 183 307 181 308 181 305 183 303 179 301 180 299 182 297 181 296 181 293 183 297 185 297 187 296 187 293 183 293 182 291 182 289 185 290 185 291 188 292 190 291 190 288 192 287 196 287 195 291 198 291 198 291 195 293 193 292 192 294 193 295 199 296 203 295 204 296 207 294 210 295 210 298 212 299 211 301 212 303 210 304 208 302 207 304 208 307 209 307 209 308 208 309 207 311 210 312 208 313 208 315 206 316 205 314 202 315 201 314 200 316 199 317 203 319 203 321 205 320 207 319 211 318 214 317 213 314 215 313 218 312 218 309 219 306 220 309 224 308 226 309 227 309 228 311 230 310 231 308 233 308 233 310 235 311 236 312 239 311 240 310 238 308 237 305 237 302 236 300 239 300 239 302 242 302 243 300 243 298 241 294 237 295 236 293 240 291 238 289 238 287 241 286 244 286 246 285 249 284 250 285 252 284 253 282 251 280 251 279 251 276 250 276 248 278 247 279 244 278 240 280 239 279 235 279 231 277 228 273 228 269 229 266 232 263 234 263 236 262 238 258 244 255 245 254 247 254 252 250 253 250 253 249 256 249 262 246 264 245 264 244 266 242 269 241 271 242 271 239 274 239 275 238 276 238 277 237 279 237 279 238 284 240 289 239 291 240 292 241 296 242 296 244 298 247 297 248 300 248 298 251 300 251 297 253 295 255 296 256 295 257 296 258 295 259 294 262 289 267 291 269 291 271 287 272 287 272 282 272 280 273 280 275 278 275 277 278 278 279 279 281 281 284 278 285 278 288 273 291 276 297 276 300 275 300 276 303 279 305 278 306 279 308 281 307 282 304 285 305 286 307 288 309 290 309 290 310 293 309 294 307 295 305 296 303 293 302 295 301 293 298 290 299 289 297 290 296 290 292 287 290 286 289 286 286 285 285 284 281 282 280 283 278 285 278 285 276 288 276 287 277 290 278 289 275 289 274 292 275 292 274 294 272 293 276 295 276 295 278 293 277 290 280 292 281 293 278 295 278 295 280 293 281 293 283 295 282 296 282 296 280 298 282 297 284 298 282 300 285 303 285 305 284 304 281 305 282 305 281 303 279 306 279 305 280 308 281 309 280 307 283 307 284 310 285 311 283 313 284 316 284 319 285 320 283 319 281 323 280 324 278 327 278 329 276 330 276 332 277 332 280 335 283 333 284 331 287 332 288 334 287 333 286 336 286 337 287 337 285 338 286 340 285 342 286 345 285 343 284 345 284 346 285 346 282 348 283 347 284 347 288 345 289 347 290 349 288 350 290 353 289 354 291 355 289 358 286 358 283 360 283 362 284 362 285 364 286 365 283 367 283 367 286 369 286 372 287 375 288 375 291 377 292 378 292 382 293 384 293 383 295 385 294 384 297 386 296 386 298 389 299 389 296 392 297 392 297 396 296 397 298 399 297 400 300 398 300 397 305 399 305 399 307 398 309 398 311 396 311 397 313 399 313 398 315 400 316 Z" id="Madhya Pradesh"/>
<path d="M 341 388 342 389 339 391 336 392 335 397 336 399 338 399 338 403 339 406 337 407 338 408 340 408 339 414 340 415 337 417 334 418 335 419 334 420 337 420 338 421 338 426 336 426 334 427 337 428 335 429 336 431 336 429 338 429 338 430 342 433 342 435 343 435 347 437 348 439 345 440 346 442 344 444 342 444 342 443 340 443 339 441 336 443 336 444 334 445 334 447 331 452 331 453 333 456 333 457 330 458 331 459 326 460 324 458 322 457 321 456 322 455 321 450 320 451 320 449 322 447 321 445 322 443 323 441 321 438 316 435 313 436 312 438 311 437 309 438 306 436 303 435 303 436 302 439 301 439 299 437 297 437 296 436 295 434 292 434 292 431 283 429 283 430 280 429 279 428 277 427 277 428 278 429 279 430 278 432 277 433 277 436 276 436 277 439 275 440 274 441 274 445 273 445 270 444 267 442 265 443 265 445 264 448 262 450 262 452 265 453 267 456 264 457 263 460 262 460 262 463 259 465 258 464 257 466 256 470 257 471 254 472 253 471 251 470 252 468 252 467 248 468 247 471 246 471 246 473 244 474 244 475 240 474 239 476 241 476 239 478 239 481 236 482 234 482 236 484 234 485 234 486 233 488 231 486 230 487 229 485 227 487 228 488 226 490 223 490 224 492 223 494 224 494 224 496 225 496 225 498 224 497 222 497 220 496 219 497 218 496 212 497 211 495 209 495 209 496 207 495 206 495 204 493 204 496 203 496 203 498 205 499 204 501 205 504 205 507 204 507 200 508 200 507 195 507 195 510 193 511 191 510 189 508 185 508 186 509 184 510 185 512 183 512 179 514 178 516 178 517 175 518 175 516 173 516 166 520 169 521 169 526 173 527 173 531 171 530 170 531 170 533 172 532 171 535 170 536 169 540 166 541 166 540 163 541 163 543 160 544 159 544 158 541 156 540 156 539 155 541 152 541 152 541 151 541 151 541 148 536 146 535 144 526 142 524 142 521 141 519 142 518 141 514 141 512 140 509 140 507 140 503 138 499 138 496 137 496 138 494 136 491 135 487 136 486 133 480 132 478 131 475 132 474 131 472 134 473 132 471 130 469 129 466 130 464 128 460 129 457 131 457 132 455 130 456 130 454 131 454 131 452 133 452 132 450 130 452 129 452 128 453 127 453 128 451 127 448 126 448 126 446 127 443 126 441 125 439 126 438 125 437 125 435 124 429 123 426 125 425 124 422 125 421 127 421 129 418 131 418 132 421 132 421 132 421 132 421 132 421 133 421 133 421 134 422 134 422 134 422 135 422 135 422 135 422 135 422 136 422 136 422 136 422 136 422 137 422 137 423 137 423 137 423 138 422 138 421 138 421 140 420 140 419 144 419 144 417 144 414 145 411 145 408 143 406 145 405 146 406 147 406 149 407 150 408 153 409 155 407 155 406 157 405 158 401 157 399 157 397 155 397 153 396 152 394 149 394 151 393 155 392 155 390 157 390 158 389 158 386 161 386 162 384 166 384 168 384 168 381 165 382 165 382 161 382 156 383 155 381 154 380 156 379 157 378 155 376 154 374 156 374 161 372 164 371 165 372 168 371 170 369 171 369 172 371 174 372 173 375 174 377 175 378 179 380 182 380 183 380 188 382 190 384 193 386 195 386 199 386 202 387 204 386 210 387 213 386 216 387 217 387 219 390 219 392 217 392 219 395 224 395 227 394 228 392 231 392 232 389 231 388 234 386 236 384 235 383 236 381 239 381 241 378 244 377 246 377 247 378 249 377 249 376 255 376 257 379 257 383 255 382 253 382 255 387 258 387 258 386 260 386 261 387 263 386 266 387 271 385 273 383 274 382 279 381 280 381 281 383 283 383 285 384 289 384 289 384 294 384 294 381 295 380 299 380 300 379 302 379 303 377 307 379 309 379 311 382 314 382 316 381 320 382 321 382 323 382 325 382 327 380 329 380 331 380 334 383 335 385 334 387 336 386 338 386 340 388 341 388 Z" id="Maharashtra"/>
<path d="M 724 275 723 277 722 282 726 284 725 289 723 292 722 295 721 296 720 298 718 299 716 305 715 306 715 307 713 310 712 314 710 317 710 319 706 317 703 316 700 317 699 315 695 315 695 316 692 316 691 316 690 313 688 312 688 314 685 314 682 313 681 314 681 312 678 312 679 309 679 307 680 306 678 304 680 304 679 301 680 299 681 299 681 296 682 293 684 293 685 290 685 287 688 284 688 283 689 281 691 279 692 281 694 281 695 282 697 279 700 276 701 275 700 273 703 272 705 273 706 271 710 273 711 273 712 274 714 274 717 273 719 271 720 271 721 269 722 269 721 272 721 274 724 275 Z" id="Manipur"/>
<path d="M 663 287 661 286 655 284 653 283 645 283 641 284 641 283 637 284 631 282 626 282 620 284 618 283 617 284 611 283 609 284 605 283 600 282 596 280 592 279 592 277 593 275 593 275 593 274 593 274 593 273 593 273 593 273 593 273 593 273 594 272 596 272 597 272 597 271 596 271 596 270 595 269 595 269 594 269 594 268 594 267 594 268 595 266 595 266 595 265 595 265 595 265 596 265 597 265 596 265 597 265 597 264 597 264 597 264 597 263 597 263 598 263 598 263 598 263 598 263 599 263 599 263 599 262 599 262 599 262 605 261 606 260 608 261 610 260 611 262 611 263 613 262 614 263 617 262 618 263 619 262 623 262 623 264 625 264 624 265 629 265 629 267 630 268 631 267 633 265 637 264 638 262 639 260 641 260 641 262 642 263 643 262 644 259 646 257 648 258 648 260 649 260 656 259 659 258 656 261 655 263 657 263 655 266 656 270 657 268 660 268 662 267 663 268 665 271 666 271 667 273 669 272 669 273 667 274 668 276 669 276 673 280 673 282 669 283 668 285 665 284 664 287 663 287 Z" id="Meghalaya"/>
<path d="M 678 304 680 306 679 307 679 309 678 312 681 312 681 314 682 313 685 314 688 314 688 315 689 317 689 320 690 325 690 328 688 333 689 336 688 341 685 342 684 341 682 341 682 342 683 344 681 348 681 350 682 354 682 355 682 357 684 358 684 363 682 363 683 365 680 364 680 367 679 367 679 370 677 369 676 371 675 368 670 365 670 369 668 370 668 368 667 366 668 366 667 361 667 359 666 352 664 347 664 346 661 344 662 341 661 339 661 336 662 336 662 333 660 331 658 322 658 322 658 322 658 320 658 320 659 320 659 320 659 320 659 320 659 320 659 320 659 319 659 319 659 319 659 319 659 319 660 319 660 319 660 319 660 319 660 318 660 318 660 318 660 318 660 318 660 318 660 318 660 318 660 317 660 317 660 317 660 316 660 316 660 316 660 316 660 315 660 315 660 315 660 314 660 314 660 314 660 314 660 314 660 313 660 313 660 312 660 312 660 312 660 312 660 312 660 311 660 311 660 311 660 311 660 311 660 311 660 311 660 310 660 310 660 310 660 309 660 309 659 309 659 309 659 309 659 309 659 309 659 308 659 308 659 308 660 308 663 308 663 310 663 311 663 311 663 311 664 311 664 311 664 311 664 311 664 311 664 311 664 311 665 311 665 310 665 311 665 311 665 310 665 310 666 308 668 308 668 306 670 306 672 301 674 304 678 304 Z" id="Mizoram"/>
<path d="M 740 242 737 244 737 245 735 248 737 250 736 256 737 258 738 258 736 261 734 262 733 264 734 267 731 270 731 271 729 272 728 274 724 275 721 274 721 272 722 269 721 269 720 271 719 271 717 273 714 274 712 274 711 273 710 273 706 271 705 273 703 272 700 273 701 275 700 276 697 279 695 282 694 281 692 281 691 279 691 276 689 275 687 273 691 270 692 270 693 268 698 264 697 263 700 261 700 263 700 266 702 264 703 265 705 262 705 261 706 255 709 252 710 251 711 248 713 245 714 248 717 246 717 244 720 241 724 240 728 238 730 235 731 234 733 235 735 234 738 232 739 235 738 237 740 239 739 240 740 242 Z" id="Nagaland"/>
<path d="M 511 403 514 403 515 405 513 405 510 406 508 407 510 404 511 403 Z M 507 364 507 366 509 365 510 367 513 367 515 369 516 370 515 372 517 374 517 373 517 373 517 373 517 373 517 372 517 372 518 372 518 372 519 372 519 372 519 371 519 370 519 371 520 371 521 371 521 371 521 371 521 371 521 371 521 372 521 373 521 374 522 374 522 374 522 375 522 375 522 375 522 375 522 375 523 375 523 375 523 375 523 375 523 375 523 376 523 376 524 375 524 376 524 376 524 376 525 376 525 376 525 376 526 376 527 376 527 376 527 377 527 377 527 377 527 377 527 377 527 377 527 378 527 378 527 378 527 379 527 379 528 380 528 380 525 382 520 382 518 383 514 386 512 388 510 391 510 393 514 402 513 403 511 403 510 403 508 407 510 407 513 405 516 405 509 409 507 411 507 413 509 414 508 415 505 417 502 419 499 423 498 425 495 423 497 425 494 427 489 428 485 429 478 431 471 435 468 436 464 439 462 442 457 445 454 449 452 448 452 449 452 449 452 449 452 448 452 448 452 447 452 447 451 448 451 447 451 448 451 448 450 448 450 448 449 448 449 449 450 449 450 450 450 450 450 449 451 450 451 450 450 450 450 450 450 450 450 450 450 450 449 450 449 450 449 451 449 451 448 451 448 450 448 450 448 450 448 450 448 450 447 451 446 451 446 451 446 451 446 452 446 452 445 452 444 451 444 451 444 451 444 452 444 452 444 452 445 452 444 454 441 458 439 457 435 459 433 457 430 457 428 456 427 451 425 452 422 448 420 451 419 450 418 450 418 453 417 452 414 452 415 454 417 455 415 457 413 457 411 459 409 458 407 461 406 461 406 464 408 464 406 467 407 468 405 469 403 469 400 467 399 470 396 471 395 473 394 472 394 469 393 468 392 465 391 464 388 468 389 469 387 471 387 474 387 475 387 478 386 477 385 479 383 479 383 478 379 477 376 479 373 481 371 482 369 482 367 484 361 484 362 482 363 482 364 480 364 478 365 475 365 472 369 470 371 469 372 468 375 464 377 463 375 462 377 462 377 460 382 457 383 454 385 454 384 448 382 444 383 443 382 442 383 440 381 440 381 438 379 438 379 437 379 432 379 430 378 430 377 428 374 427 374 426 374 424 377 422 379 424 380 423 383 425 385 425 387 429 390 427 394 428 394 430 396 429 397 429 397 425 389 423 388 420 390 417 389 415 390 413 388 410 387 409 388 407 387 405 388 400 389 402 391 401 391 400 393 399 395 396 395 393 399 393 400 393 404 392 406 394 409 394 411 393 411 390 413 390 413 387 416 388 416 386 415 384 416 380 417 379 417 379 419 377 419 375 420 375 422 372 420 371 420 368 422 368 421 367 423 364 426 363 429 360 432 360 434 357 433 355 436 357 436 358 438 360 441 360 444 360 446 358 450 358 453 358 453 358 457 358 461 357 462 361 461 367 465 368 466 370 467 367 470 365 471 365 476 368 478 367 479 368 482 367 481 369 481 370 484 370 486 369 488 365 486 363 488 361 487 360 488 358 486 357 488 354 490 356 493 357 495 358 497 360 499 361 500 360 502 362 505 363 507 364 Z" fill-rule="evenodd" id="Orissa"/>
<path d="M 317 671 317 671 318 671 318 671 318 670 318 671 319 670 319 671 319 671 319 671 319 675 319 675 318 675 318 675 318 675 318 675 318 675 318 674 318 674 318 674 318 674 318 674 317 673 317 673 317 673 317 673 317 673 317 673 317 673 316 673 316 673 316 673 316 673 316 673 316 672 315 672 315 672 316 672 315 672 315 672 316 672 316 672 315 671 316 671 316 671 316 672 316 671 316 671 316 671 316 671 316 671 316 671 316 670 316 670 317 671 Z M 315 643 316 643 316 643 316 643 317 643 316 644 316 644 316 644 316 644 316 644 316 645 317 645 317 645 317 644 317 644 317 644 318 644 318 644 318 644 318 644 319 644 319 644 318 648 318 647 315 647 316 646 315 643 314 643 314 643 314 643 314 643 315 643 Z M 197 639 198 639 198 639 198 639 198 639 197 639 197 639 197 639 196 640 196 640 196 640 196 640 195 640 195 640 195 641 195 641 195 641 195 641 194 642 194 643 193 642 193 642 193 641 193 640 193 640 194 640 194 640 194 640 194 640 195 640 195 639 195 639 196 639 196 639 196 639 197 639 197 639 197 639 Z M 386 514 386 514 385 515 386 514 Z" fill-rule="evenodd" id="Puducherry"/>
<path d="M 235 126 237 128 237 130 236 130 236 130 236 130 236 130 236 130 235 130 235 130 235 130 235 129 235 130 234 130 234 130 234 130 234 130 234 130 233 130 233 131 234 131 234 132 234 132 234 132 234 132 234 132 234 132 236 133 236 133 236 133 237 132 239 135 239 137 238 139 240 140 238 141 237 139 235 139 233 140 234 141 231 144 229 144 232 146 231 148 228 149 227 148 226 146 225 148 221 148 219 151 219 154 221 155 217 157 216 157 215 158 212 159 210 158 209 156 206 156 206 158 204 157 202 158 199 156 196 160 195 163 193 164 193 162 192 161 192 159 193 158 192 156 191 157 189 155 190 154 187 155 185 153 181 151 179 152 177 154 174 153 161 152 157 152 157 150 158 148 159 146 158 144 156 141 159 137 161 137 162 134 164 134 166 132 168 128 170 128 172 125 174 124 175 122 178 122 178 120 176 120 175 121 173 120 174 116 175 116 177 111 175 110 176 110 175 107 174 104 175 101 176 100 181 98 183 95 185 95 187 96 190 94 193 94 195 92 197 90 196 87 200 87 200 89 201 87 206 85 207 84 209 83 211 81 210 83 212 85 210 86 207 89 204 90 205 93 203 94 205 94 209 97 211 98 213 102 212 102 214 106 216 109 218 113 218 113 219 116 222 115 223 113 224 113 226 116 230 118 231 121 231 124 234 125 235 126 Z" id="Punjab"/>
<path d="M 174 153 175 155 172 157 172 158 176 158 175 163 176 164 175 167 176 170 177 168 181 169 183 168 185 169 186 171 188 171 190 172 192 171 193 172 196 171 195 172 198 171 197 177 199 178 201 178 200 180 201 183 202 189 204 189 204 191 208 193 208 194 212 196 215 199 217 202 215 201 212 203 215 203 214 205 214 206 212 208 213 210 216 210 217 209 219 211 220 210 218 206 219 204 221 204 223 205 223 203 224 202 227 202 228 203 226 203 229 205 229 207 232 205 232 203 236 202 236 200 238 200 240 202 239 206 240 210 238 213 241 215 241 213 243 213 243 211 245 212 247 211 249 211 251 215 251 219 253 221 253 222 257 224 260 228 258 229 258 230 256 230 256 231 259 233 260 232 262 233 259 234 253 237 253 239 255 239 255 237 257 238 261 236 263 235 266 236 270 235 271 236 273 234 276 235 275 238 274 239 271 239 271 242 269 241 266 242 264 244 264 245 262 246 256 249 253 249 253 250 252 250 247 254 245 254 244 255 238 258 236 262 234 263 232 263 229 266 228 269 228 273 231 277 235 279 239 279 240 280 244 278 247 279 248 278 250 276 251 276 251 279 251 280 253 282 252 284 250 285 249 284 246 285 244 286 241 286 238 287 238 289 240 291 236 293 237 295 241 294 243 298 243 300 242 302 239 302 239 300 236 300 237 302 237 305 238 308 240 310 239 311 236 312 235 311 233 310 233 308 231 308 230 310 228 311 227 309 226 309 224 308 220 309 219 306 218 309 218 312 215 313 213 314 214 317 211 318 207 319 205 320 203 321 203 319 199 317 200 316 201 314 202 315 205 314 206 316 208 315 208 313 210 312 207 311 208 309 209 308 209 307 208 307 207 304 208 302 210 304 212 303 211 301 212 299 210 298 210 295 207 294 204 296 203 295 199 296 193 295 192 294 193 292 195 293 198 291 198 291 195 291 196 287 192 287 190 288 190 291 188 292 185 291 185 290 182 289 182 291 183 293 187 293 187 296 185 297 183 297 181 293 181 296 182 297 180 299 179 301 183 303 181 305 181 308 183 307 184 309 186 312 187 314 185 317 184 320 185 322 184 325 183 327 181 328 175 331 174 334 177 335 179 335 179 336 174 340 172 340 170 339 168 341 166 337 165 338 163 337 163 335 161 334 159 332 157 333 155 330 153 330 152 331 152 330 150 330 150 325 148 325 147 326 146 323 143 321 143 321 142 319 144 317 144 314 141 312 141 313 139 315 138 314 138 312 136 312 135 310 137 305 135 304 135 302 132 303 132 305 130 306 129 305 125 305 124 302 121 302 120 301 118 304 117 302 116 301 115 300 113 300 112 299 114 298 111 298 110 298 107 297 106 296 103 298 101 297 101 299 100 297 96 298 94 297 91 297 88 298 87 297 86 298 85 298 84 298 83 298 82 297 81 296 76 290 75 284 71 280 69 277 69 270 69 269 61 270 58 269 55 265 53 263 53 259 55 254 55 247 55 245 53 244 51 244 46 245 43 243 37 240 36 238 37 233 39 228 47 222 49 219 51 218 53 212 56 209 60 206 63 205 66 205 69 208 69 210 71 214 75 214 83 211 89 209 96 209 102 207 103 202 105 200 108 198 111 195 113 188 115 185 125 180 131 178 132 174 134 172 140 163 143 153 144 153 149 151 154 149 159 146 158 148 157 150 157 152 161 152 174 153 Z" id="Rajasthan"/>
<path d="M 562 229 558 228 556 228 554 231 553 231 552 230 552 230 551 230 551 230 550 230 550 230 549 230 544 229 543 227 542 227 544 224 543 220 544 218 546 215 547 212 547 210 545 209 546 207 549 207 551 206 553 206 555 205 556 205 557 204 559 203 560 204 562 204 565 205 565 208 566 209 565 211 565 215 563 218 564 222 567 224 566 226 564 226 562 229 Z" id="Sikkim"/>
<path d="M 305 716 305 718 308 720 304 718 302 718 305 716 Z M 326 601 326 601 326 601 326 602 326 602 327 602 327 602 327 602 327 602 328 602 328 602 328 602 328 602 329 602 331 605 332 604 333 606 332 611 330 619 330 621 328 629 328 630 325 634 320 641 319 644 319 644 318 644 318 644 318 644 318 644 317 644 317 644 317 644 317 645 317 645 316 645 316 644 316 644 316 644 316 644 316 644 317 643 316 643 316 643 316 643 315 643 314 643 314 643 314 643 314 643 315 643 316 646 315 647 318 647 318 648 317 654 317 656 318 658 319 661 320 666 319 671 319 671 319 671 319 670 318 671 318 670 318 671 318 671 317 671 317 671 316 670 316 670 316 671 316 671 316 671 316 671 316 671 316 671 316 672 316 671 316 671 315 671 316 672 316 672 315 672 315 672 316 672 315 672 315 672 316 672 316 673 316 673 316 673 316 673 316 673 317 673 317 673 317 673 317 673 317 673 317 673 317 673 318 674 318 674 318 674 318 674 318 674 318 675 318 675 318 675 318 675 318 675 319 675 319 675 320 686 320 689 319 690 315 688 311 689 307 689 304 691 302 695 303 696 300 699 298 704 296 706 294 708 293 712 296 715 298 716 301 717 299 718 296 717 293 718 286 720 285 721 280 722 275 726 273 728 274 732 272 735 273 736 272 738 271 740 270 742 268 743 266 744 264 745 261 747 258 748 257 750 250 748 244 744 246 743 246 742 247 740 247 739 249 737 246 732 247 731 248 728 247 727 245 724 248 721 249 717 250 716 250 714 252 711 250 709 249 709 246 708 247 705 247 701 249 698 247 695 249 694 249 692 247 689 246 688 242 690 241 692 239 691 237 689 237 688 236 686 237 681 236 680 238 680 238 679 239 676 237 674 232 672 233 670 236 669 234 669 234 667 233 666 234 664 233 664 231 665 226 665 228 663 229 660 226 660 223 658 221 658 220 655 222 655 226 653 226 652 228 651 229 653 231 654 237 654 237 652 239 649 240 649 241 648 244 649 249 648 250 649 253 650 255 645 257 645 260 644 262 640 261 638 258 637 255 638 254 637 254 636 256 635 258 633 259 630 257 630 257 628 258 625 261 625 264 619 267 619 269 621 269 620 272 622 275 622 274 624 276 624 279 626 281 626 282 623 284 624 286 618 286 616 288 615 288 614 290 614 293 613 296 613 300 615 303 611 304 612 306 612 308 610 308 608 306 607 309 607 311 607 312 609 313 608 315 608 315 610 318 609 316 608 317 607 319 607 321 606 322 603 324 602 323 601 325 601 326 601 Z" fill-rule="evenodd" id="Tamil Nadu"/>
<path d="M 657 301 659 304 657 308 659 308 659 308 659 308 659 309 659 309 659 309 659 309 659 309 660 309 660 309 660 310 660 310 660 310 660 311 660 311 660 311 660 311 660 311 660 311 660 311 660 312 660 312 660 312 660 312 660 312 660 313 660 313 660 314 660 314 660 314 660 314 660 314 660 315 660 315 660 315 660 316 660 316 660 316 660 316 660 317 660 317 660 317 660 318 660 318 660 318 660 318 660 318 660 318 660 318 660 318 660 319 660 319 660 319 660 319 659 319 659 319 659 319 659 319 659 319 659 320 659 320 659 320 659 320 659 320 659 320 658 320 658 320 658 322 658 322 658 322 657 323 655 322 653 325 652 324 651 322 650 324 650 329 650 330 647 331 645 335 647 340 645 341 643 343 641 343 641 344 639 342 638 337 635 335 635 338 635 341 634 341 633 338 633 335 631 329 628 326 629 322 630 322 631 319 630 317 632 315 634 316 635 314 634 312 639 313 641 312 642 309 643 310 645 311 644 308 647 310 648 311 650 308 649 306 650 305 654 305 656 303 655 301 657 301 Z" id="Tripura"/>
<path d="M 317 182 318 182 318 182 318 182 318 182 318 182 318 182 318 183 318 183 318 183 318 183 318 184 318 183 318 184 318 184 318 184 318 184 318 184 318 183 319 183 320 183 320 183 319 183 319 183 319 184 320 184 320 184 321 184 321 184 320 184 320 184 321 185 321 185 321 185 323 186 325 183 327 183 329 185 330 185 334 189 336 189 338 191 337 188 340 187 342 188 343 190 348 193 351 193 353 195 357 196 357 198 360 200 359 201 361 202 361 201 363 201 364 204 368 206 370 206 375 210 377 208 380 208 381 210 384 210 390 215 397 213 399 217 398 219 403 219 406 221 410 221 413 223 413 224 415 224 417 222 416 220 422 220 429 224 430 224 430 226 430 226 430 226 431 227 432 227 432 227 432 228 432 228 432 228 432 229 431 229 431 230 431 230 431 230 431 230 431 231 431 231 432 231 433 230 433 230 433 231 433 231 432 231 433 232 434 232 434 233 434 233 434 234 434 234 434 234 434 234 434 234 434 235 434 235 433 235 433 235 434 235 434 235 434 236 434 236 434 236 434 236 434 236 435 236 435 236 435 236 435 236 436 236 437 236 436 237 437 238 437 238 437 237 437 237 438 237 439 237 439 237 439 237 440 238 439 238 439 238 440 238 439 239 439 239 439 240 439 240 440 240 440 240 440 240 441 240 441 240 441 241 441 242 442 242 442 242 443 242 444 243 440 244 437 243 435 243 434 246 432 247 430 246 430 248 433 248 434 250 437 250 437 254 435 254 433 254 433 256 434 258 435 258 437 260 441 262 442 262 444 263 447 264 450 266 450 268 448 268 448 269 446 269 443 267 442 267 441 269 439 270 437 268 435 269 435 270 430 272 427 277 424 277 423 278 417 281 415 282 415 285 414 287 415 287 415 290 416 294 419 297 420 298 419 301 416 301 416 303 417 305 416 306 416 308 414 312 413 314 411 315 411 317 409 318 404 319 400 316 398 315 399 313 397 313 396 311 398 311 398 309 399 307 399 305 397 305 398 300 400 300 399 297 397 298 396 296 392 297 392 297 389 296 389 299 386 298 386 296 384 297 385 294 383 295 384 293 382 293 378 292 377 292 375 291 375 288 372 287 369 286 367 286 367 283 365 283 364 286 362 285 362 284 360 283 358 283 358 286 355 289 354 291 353 289 350 290 349 288 347 290 345 289 347 288 347 284 348 283 346 282 346 285 345 284 343 284 345 285 342 286 340 285 338 286 337 285 337 287 336 286 333 286 334 287 332 288 331 287 333 284 335 283 332 280 332 277 330 276 329 276 327 278 324 278 323 280 319 281 320 283 319 285 316 284 313 284 311 283 310 285 307 284 307 283 309 280 308 281 305 280 306 279 303 279 305 281 305 282 304 281 305 284 303 285 300 285 298 282 297 284 298 282 296 280 296 282 295 282 293 283 293 281 295 280 295 278 293 278 292 281 290 280 293 277 295 278 295 276 293 276 294 272 292 274 292 275 289 274 289 275 290 278 287 277 288 276 285 276 285 278 283 278 282 280 284 281 285 285 286 286 286 289 287 290 290 292 290 296 289 297 290 299 293 298 295 301 293 302 296 303 295 305 294 307 293 309 290 310 290 309 288 309 286 307 285 305 282 304 281 307 279 308 278 306 279 305 276 303 275 300 276 300 276 297 273 291 278 288 278 285 281 284 279 281 278 279 277 278 278 275 280 275 280 273 282 272 287 272 287 272 291 271 291 269 289 267 294 262 295 259 296 258 295 257 296 256 295 255 297 253 300 251 298 251 300 248 297 248 298 247 296 244 296 242 292 241 291 240 289 239 284 240 279 238 279 237 277 237 276 238 275 238 276 235 273 234 271 236 270 235 266 236 263 235 261 236 257 238 255 237 255 239 253 239 253 237 259 234 262 233 260 232 259 233 256 231 256 230 258 230 258 229 260 228 257 224 253 222 253 221 251 219 251 215 249 211 251 210 254 209 256 208 256 206 255 205 255 201 256 201 256 199 254 198 255 196 253 194 251 192 251 192 251 192 250 191 250 191 250 190 250 190 250 189 250 189 250 187 250 186 250 186 250 186 250 186 249 186 249 186 249 186 248 186 248 185 248 185 248 185 248 185 248 184 247 184 247 184 247 184 247 184 247 182 247 182 248 181 247 180 247 178 245 176 245 171 246 170 245 168 245 165 244 164 244 162 245 159 245 158 246 157 246 154 249 150 253 148 253 147 254 146 257 143 257 141 257 140 259 140 261 142 267 144 261 152 261 155 262 157 262 159 264 160 267 159 268 161 267 162 270 163 270 163 274 159 275 159 278 157 282 158 283 161 285 163 288 165 293 166 293 167 288 170 291 172 292 171 294 174 295 174 296 175 297 174 300 175 301 178 302 178 304 180 306 179 307 180 307 182 314 183 317 182 Z" id="Uttar Pradesh"/>
<path d="M 325 183 323 186 321 185 321 185 321 185 320 184 320 184 321 184 321 184 320 184 320 184 319 184 319 183 319 183 320 183 320 183 319 183 318 183 318 184 318 184 318 184 318 184 318 184 318 183 318 184 318 183 318 183 318 183 318 183 318 182 318 182 318 182 318 182 318 182 318 182 317 182 314 183 307 182 307 180 306 179 304 180 302 178 301 178 300 175 297 174 296 175 295 174 294 174 292 171 291 172 288 170 293 167 293 166 288 165 285 163 283 161 282 158 278 157 275 159 274 159 270 163 270 163 267 162 268 161 267 159 264 160 262 159 262 157 261 155 261 152 267 144 261 142 259 140 257 140 263 137 264 136 262 135 263 134 262 132 260 131 262 128 263 128 263 126 262 125 264 124 263 122 266 120 268 119 269 120 273 118 275 117 277 116 279 116 282 118 285 117 287 118 291 118 291 120 293 121 296 121 294 117 294 115 296 114 298 111 300 112 303 116 304 120 307 121 307 123 310 123 311 125 312 125 316 124 319 124 320 126 325 128 326 130 328 129 330 131 328 133 329 135 331 136 337 138 340 138 343 140 346 142 351 144 351 145 349 145 347 147 347 148 344 150 342 152 340 152 339 155 337 157 335 157 334 158 335 162 330 167 332 170 332 173 330 173 331 175 329 175 327 176 327 179 325 181 325 183 Z" id="Uttaranchal"/>
<path d="M 555 381 556 382 555 382 555 381 Z M 565 380 567 382 565 382 565 380 Z M 557 380 558 380 557 382 556 381 557 380 Z M 563 379 564 381 562 381 562 379 563 379 Z M 558 378 558 380 557 380 558 378 Z M 564 378 564 379 562 378 563 378 563 378 564 378 Z M 550 378 552 379 550 380 550 378 Z M 554 378 554 380 553 378 554 378 Z M 547 377 547 378 548 379 548 380 548 381 547 378 547 377 Z M 571 377 572 380 571 380 570 379 570 378 569 378 570 377 571 377 Z M 569 377 570 377 569 378 570 378 570 379 569 379 569 378 569 377 Z M 557 377 557 377 557 380 556 378 557 377 Z M 566 377 568 378 567 380 566 378 566 377 Z M 553 377 553 379 554 380 553 381 552 378 553 377 Z M 548 376 549 376 550 379 550 382 549 382 549 381 548 380 548 380 548 378 548 376 Z M 567 376 568 376 568 377 569 377 569 377 569 377 568 377 569 378 568 378 567 376 Z M 565 376 565 379 564 377 565 376 Z M 569 376 570 377 569 377 569 377 569 377 569 377 568 377 568 376 568 376 569 376 Z M 554 375 554 378 553 376 554 375 Z M 561 375 562 376 563 376 562 377 563 377 563 378 563 378 561 378 561 375 Z M 557 375 558 377 557 377 556 377 556 376 557 375 Z M 553 375 553 377 552 376 553 375 Z M 563 377 562 376 563 376 563 374 564 375 563 375 564 376 563 377 Z M 568 374 568 374 569 375 567 376 568 375 567 374 567 374 567 374 568 374 Z M 551 373 552 374 552 376 551 378 550 376 549 375 549 375 549 375 550 374 551 373 Z M 565 373 566 377 565 376 565 373 Z M 546 373 547 375 546 379 546 380 543 379 543 377 546 373 Z M 563 373 564 374 564 375 563 375 563 374 563 374 563 374 563 374 563 373 563 373 563 373 Z M 569 373 570 373 568 376 569 375 568 374 569 373 569 373 Z M 559 372 560 373 559 376 558 374 559 372 Z M 554 372 555 374 554 375 553 374 553 373 553 373 553 372 554 372 554 372 Z M 562 372 562 372 562 373 563 373 563 373 563 373 563 374 563 374 563 374 563 374 563 375 563 376 562 375 562 375 561 374 562 372 Z M 565 372 566 372 567 372 569 372 569 373 568 374 568 374 567 374 567 374 567 374 567 374 566 375 565 372 Z M 562 372 562 372 562 372 563 372 564 372 564 372 563 373 562 373 562 372 562 372 561 372 562 372 Z M 562 370 562 371 564 371 564 372 563 372 563 372 562 372 562 372 562 371 562 370 562 370 Z M 560 369 561 370 560 371 559 371 560 369 Z M 546 369 544 372 543 372 544 370 546 369 Z M 564 369 566 369 567 372 565 372 565 371 562 371 563 369 564 369 Z M 570 368 571 370 571 371 570 372 569 371 570 370 569 370 568 369 570 368 Z M 564 366 566 367 564 367 564 366 Z M 566 365 567 367 566 367 565 366 565 366 566 365 Z M 568 365 569 366 568 368 569 369 568 369 569 370 569 371 570 372 567 371 567 368 567 367 566 365 567 365 568 365 Z M 569 364 571 366 570 368 568 368 569 364 Z M 561 364 562 364 563 364 563 365 563 365 561 367 562 369 560 369 559 367 560 365 560 365 561 364 561 364 Z M 565 365 565 366 563 367 562 368 561 368 562 366 563 366 564 365 565 365 565 365 565 365 Z M 564 362 564 364 564 364 564 364 564 364 564 364 565 365 564 365 564 365 564 365 563 365 563 364 562 364 562 363 564 362 Z M 565 360 567 362 568 364 567 363 567 365 566 365 565 364 564 364 564 364 564 364 564 364 565 363 564 362 564 362 564 361 564 360 565 360 565 360 Z M 569 359 569 362 571 364 571 366 570 364 568 363 568 360 569 359 Z M 566 355 566 356 566 357 566 357 566 357 566 358 567 358 567 358 566 360 565 358 566 355 Z M 567 354 568 355 569 358 568 359 568 361 566 359 567 359 567 358 567 358 567 357 567 357 566 357 566 357 566 356 567 356 566 354 567 354 Z M 549 230 550 230 550 230 551 230 551 230 552 230 552 230 553 231 554 231 556 228 558 228 562 229 566 230 566 234 567 233 568 235 570 235 572 236 573 238 576 238 579 237 582 238 584 238 587 239 586 241 590 240 590 241 593 241 593 244 592 247 593 248 592 250 590 252 590 252 590 253 590 252 589 252 589 252 589 252 589 253 589 253 589 253 589 253 589 253 588 253 589 253 589 253 589 254 589 254 589 254 589 254 588 255 588 254 588 255 589 255 589 255 589 255 589 255 589 255 589 255 588 255 588 256 588 256 589 256 589 256 589 256 589 256 589 256 588 256 588 256 588 255 588 254 587 254 586 257 587 259 585 259 585 261 582 260 581 259 580 260 576 259 577 258 574 257 572 253 572 250 570 250 568 248 567 250 569 251 569 252 571 252 571 254 568 254 566 253 565 254 564 252 563 252 562 251 559 248 557 248 555 246 553 245 553 243 552 244 551 247 555 248 556 251 554 250 552 253 552 254 547 256 546 258 547 260 546 260 544 262 545 265 546 267 549 266 549 266 554 270 554 271 556 273 560 275 563 274 564 274 565 275 565 278 567 279 569 280 568 281 567 283 565 282 564 283 559 282 558 283 555 282 554 282 554 287 553 289 551 290 551 291 549 291 548 289 546 290 546 291 544 294 542 297 545 300 548 303 549 303 551 304 554 305 558 306 561 307 562 308 561 311 562 315 562 317 559 319 557 323 558 326 559 326 560 327 562 329 564 329 563 332 561 334 562 335 564 336 567 336 568 337 567 339 566 340 565 344 566 344 567 346 568 347 567 350 568 351 568 354 566 354 566 355 565 358 563 356 564 358 565 358 565 360 566 360 565 360 565 360 564 360 564 360 564 361 564 362 562 363 562 364 561 364 560 364 559 367 559 369 558 370 559 371 558 373 556 372 554 372 554 372 554 372 553 372 553 372 553 373 553 373 552 374 553 375 552 374 551 373 550 374 550 374 549 375 549 375 549 375 550 376 548 376 546 373 546 371 548 368 547 365 544 364 545 361 543 364 541 362 541 359 540 362 542 364 546 365 547 367 546 368 543 369 541 374 536 378 532 379 528 380 528 380 527 379 527 379 527 378 527 378 527 378 527 377 527 377 527 377 527 377 527 377 527 377 527 376 527 376 526 376 525 376 525 376 525 376 524 376 524 376 524 376 524 375 523 376 523 376 523 375 523 375 523 375 523 375 523 375 522 375 522 375 522 375 522 375 522 375 522 374 522 374 521 374 521 373 521 372 521 371 521 371 521 371 521 371 521 371 520 371 519 371 519 370 519 371 519 372 519 372 518 372 518 372 517 372 517 372 517 373 517 373 517 373 517 373 517 374 515 372 516 370 515 369 513 367 510 367 509 365 507 366 507 364 509 364 509 362 511 363 511 362 510 361 510 359 508 358 509 357 508 354 505 354 505 352 502 350 501 351 499 348 500 345 499 345 502 343 501 343 493 343 491 340 488 339 488 338 485 339 483 337 483 335 484 334 484 329 486 330 489 329 488 327 488 326 491 327 491 329 493 330 497 330 497 328 499 325 502 325 507 323 509 324 510 320 512 318 519 321 518 319 521 319 521 318 523 318 523 316 521 314 524 314 527 316 528 314 528 312 529 313 531 311 530 311 533 311 532 309 532 308 535 307 537 304 536 300 539 299 539 295 538 294 539 292 541 291 541 290 538 287 536 285 536 282 538 280 536 279 536 276 538 275 538 274 541 273 544 275 544 274 544 274 544 274 544 274 543 273 543 273 543 273 543 273 543 272 543 272 543 272 543 272 543 272 543 271 543 271 543 271 543 271 543 271 543 270 543 270 543 270 543 270 543 270 543 270 543 269 543 269 539 267 539 264 537 264 537 262 537 262 537 262 537 262 537 262 537 261 537 261 537 261 537 260 538 260 539 259 539 258 539 258 539 258 540 258 540 258 540 259 541 258 541 258 541 258 541 258 541 258 541 257 541 257 541 257 541 257 541 256 541 256 542 257 542 257 542 257 542 256 543 256 543 256 544 256 544 256 544 255 544 255 544 255 544 255 545 255 545 255 545 254 545 254 545 254 546 254 546 253 546 253 547 253 547 253 548 253 548 253 548 252 549 251 549 251 549 251 550 251 550 251 550 251 550 251 549 250 549 250 549 250 548 250 548 250 549 249 549 248 547 247 548 245 546 246 545 246 545 246 545 246 546 243 547 239 547 237 546 236 546 234 543 232 542 230 542 227 543 227 544 229 549 230 Z" fill-rule="evenodd" id="West Bengal"/>
</g>
</svg>